<svg xmlns="http://www.w3.org/2000/svg" viewBox="0 0 100 100">
  <defs>
    <linearGradient id="lg" x1="0%" y1="0%" x2="100%" y2="100%">
      <stop offset="0%" style="stop-color:#0F3D2E"/>
      <stop offset="100%" style="stop-color:#1E5C47"/>
    </linearGradient>
  </defs>
  <rect width="100" height="100" rx="22" fill="url(#lg)"/>
  <path d="M50 85c-16 0-26-13-26-30 0-11 5-20 12-27 7-7 12-16 12-26 0 10 5 19 12 26 7 7 12 16 12 27 0 17-10 30-26 30z" fill="#C45D3A" opacity="0.95"/>
  <path d="M50 85c-10 0-17-7-17-16 0-6 2-10 6-14 4-4 6-8 6-13 0 5 2 9 6 13 4 4 6 8 6 14 0 9-7 16-17 16z" fill="#fff" opacity="0.25"/>
  <circle cx="50" cy="32" r="4" fill="#fff" opacity="0.6"/>
</svg>