<svg xmlns="http://www.w3.org/2000/svg" viewBox="0 0 100 100">
  <defs>
    <linearGradient id="lg" x1="0%" y1="0%" x2="100%" y2="100%">
      <stop offset="0%" style="stop-color:#1D3B2A"/>
      <stop offset="100%" style="stop-color:#2D5A42"/>
    </linearGradient>
    <linearGradient id="lg2" x1="0%" y1="0%" x2="100%" y2="100%">
      <stop offset="0%" style="stop-color:#C25E3A"/>
      <stop offset="100%" style="stop-color:#D4774A"/>
    </linearGradient>
  </defs>
  <rect width="100" height="100" rx="24" fill="url(#lg)"/>
  <path d="M50 82c-14 0-23-12-23-26 0-10 4-18 10-24 6-6 10-14 10-22 0 8 4 16 10 22 6 6 10 14 10 24 0 14-9 26-23 26z" fill="url(#lg2)"/>
  <path d="M50 82c-9 0-15-6-15-14 0-5 2-9 5-12 3-3 5-7 5-11 0 4 2 8 5 11 3 3 5 7 5 12 0 8-6 14-15 14z" fill="#fff" opacity="0.2"/>
  <circle cx="50" cy="30" r="4" fill="#fff" opacity="0.5"/>
</svg>